<svg xmlns="http://www.w3.org/2000/svg" viewBox="0 0 80 80" width="100%" height="100%">
  <defs>
    <linearGradient id="faceGrad_1" x1="0%" y1="0%" x2="100%" y2="100%">
      <stop offset="0%" stop-color="#FFF59D" />
      <stop offset="100%" stop-color="#FBC02D" />
    </linearGradient>
    <filter id="shadow_1" x="-10%" y="-10%" width="120%" height="120%">
      <feDropShadow dx="0" dy="3" stdDeviation="2" flood-opacity="0.1"/>
    </filter>
  </defs>
  <g filter="url(#shadow_1)">
    <circle cx="40" cy="40" r="30" fill="url(#faceGrad_1)" stroke="#E65100" stroke-width="2"/>
    
        <path d="M26,38 Q30,34 34,38" stroke="#5D4037" stroke-width="3" stroke-linecap="round" fill="none"/>
        <path d="M46,38 Q50,34 54,38" stroke="#5D4037" stroke-width="3" stroke-linecap="round" fill="none"/>
        <path d="M32,48 Q40,56 48,48" stroke="#5D4037" stroke-width="3" stroke-linecap="round" fill="none"/>
        <ellipse cx="26" cy="43" rx="4" ry="2" fill="#FF8A80" opacity="0.6"/>
        <ellipse cx="54" cy="43" rx="4" ry="2" fill="#FF8A80" opacity="0.6"/>
      
    
        <g transform="translate(56, 38) rotate(15)">
          <path d="M0,0 Q6,-12 12,-6 Q18,0 12,6 Q6,12 0,6 Q-6,0 0,-0" fill="#FFB300" stroke="#FF6F00" stroke-width="1.5"/>
          <path d="M3,-3 Q6,-10 9,-6" stroke="#fff" stroke-width="1" stroke-linecap="round" fill="none"/>
        </g>
      
  </g>
</svg>