<svg xmlns="http://www.w3.org/2000/svg" viewBox="0 0 80 80" width="100%" height="100%">
  <defs>
    <linearGradient id="faceGrad_17" x1="0%" y1="0%" x2="100%" y2="100%">
      <stop offset="0%" stop-color="#FFF59D" />
      <stop offset="100%" stop-color="#FBC02D" />
    </linearGradient>
    <filter id="shadow_17" x="-10%" y="-10%" width="120%" height="120%">
      <feDropShadow dx="0" dy="3" stdDeviation="2" flood-opacity="0.1"/>
    </filter>
  </defs>
  <g filter="url(#shadow_17)">
    <circle cx="40" cy="40" r="30" fill="url(#faceGrad_17)" stroke="#E65100" stroke-width="2"/>
    
        <ellipse cx="26" cy="38" rx="2.5" ry="4" fill="#5D4037"/>
        <ellipse cx="54" cy="38" rx="2.5" ry="4" fill="#5D4037"/>
        <path d="M32,50 Q40,44 48,50" stroke="#5D4037" stroke-width="3" stroke-linecap="round" fill="none"/>
      
    
        <path d="M18,24 L18,34 M22,24 L22,34 M26,24 L26,34 M54,24 L54,34 M58,24 L58,34 M62,24 L62,34" stroke="#29B6F6" stroke-width="1.5"/>
        <path d="M62,38 C60,34 56,34 56,38 C56,42 62,42 62,38 Z" fill="#29B6F6"/>
      
  </g>
</svg>