<svg xmlns="http://www.w3.org/2000/svg" viewBox="0 0 80 80" width="100%" height="100%">
  <defs>
    <linearGradient id="faceGrad_2" x1="0%" y1="0%" x2="100%" y2="100%">
      <stop offset="0%" stop-color="#FFF59D" />
      <stop offset="100%" stop-color="#FBC02D" />
    </linearGradient>
    <filter id="shadow_2" x="-10%" y="-10%" width="120%" height="120%">
      <feDropShadow dx="0" dy="3" stdDeviation="2" flood-opacity="0.1"/>
    </filter>
  </defs>
  <g filter="url(#shadow_2)">
    <circle cx="40" cy="40" r="30" fill="url(#faceGrad_2)" stroke="#E65100" stroke-width="2"/>
    
        <path d="M24,40 C24,36 32,36 32,40" stroke="#5D4037" stroke-width="3" stroke-linecap="round" fill="none"/>
        <path d="M48,40 C48,36 56,36 56,40" stroke="#5D4037" stroke-width="3" stroke-linecap="round" fill="none"/>
        <path d="M35,48 Q40,52 45,48" stroke="#5D4037" stroke-width="3" stroke-linecap="round" fill="none"/>
        <ellipse cx="24" cy="44" rx="4" ry="3" fill="#FF8A80" opacity="0.7"/>
        <ellipse cx="56" cy="44" rx="4" ry="3" fill="#FF8A80" opacity="0.7"/>
      
    
        <path d="M40,15 C40,15 37,8 32,8 C27,8 24,12 24,17 C24,24 40,30 40,30 C40,30 56,24 56,17 C56,12 53,8 48,8 C43,8 40,15 40,15 Z" fill="#FF1744" stroke="#B71C1C" stroke-width="1.5"/>
      
  </g>
</svg>