<svg xmlns="http://www.w3.org/2000/svg" viewBox="0 0 80 80" width="100%" height="100%">
  <defs>
    <filter id="glow_7" x="-20%" y="-20%" width="140%" height="140%">
      <feDropShadow dx="0" dy="3" stdDeviation="2.5" flood-color="#000" flood-opacity="0.12"/>
    </filter>
  </defs>
  <g filter="url(#glow_7)">
    
      <!-- Head -->
      <circle cx="40" cy="40" r="26" fill="#D7CCC8" stroke="#5D4037" stroke-width="2"/>
      <!-- Ears -->
      <path d="M16,22 C10,22 8,36 12,42 C16,48 22,42 22,34 Z" fill="#8D6E63" stroke="#5D4037" stroke-width="2"/>
      <path d="M64,22 C70,22 72,36 68,42 C64,48 58,42 58,34 Z" fill="#8D6E63" stroke="#5D4037" stroke-width="2"/>
      <!-- Muzzle -->
      <ellipse cx="40" cy="46" rx="10" ry="7" fill="#F5F5F5" stroke="#5D4037" stroke-width="1.5"/>
      <!-- Nose -->
      <ellipse cx="40" cy="43" rx="4" ry="2.5" fill="#3E2723"/>
      <!-- Eyes -->
      <circle cx="28" cy="36" r="3.5" fill="#3E2723"/>
      <circle cx="52" cy="36" r="3.5" fill="#3E2723"/>
      <circle cx="27" cy="34" r="1.2" fill="#fff"/>
      <circle cx="51" cy="34" r="1.2" fill="#fff"/>
      <!-- Mouth -->
      <path d="M37,48 Q40,50 43,48" stroke="#3E2723" stroke-width="2" stroke-linecap="round" fill="none"/>
    
  </g>
</svg>