<svg xmlns="http://www.w3.org/2000/svg" viewBox="0 0 80 80" width="100%" height="100%">
  <defs>
    <linearGradient id="faceGrad_7" x1="0%" y1="0%" x2="100%" y2="100%">
      <stop offset="0%" stop-color="#FF8A80" />
      <stop offset="100%" stop-color="#FF1744" />
    </linearGradient>
    <filter id="shadow_7" x="-10%" y="-10%" width="120%" height="120%">
      <feDropShadow dx="0" dy="3" stdDeviation="2" flood-opacity="0.1"/>
    </filter>
  </defs>
  <g filter="url(#shadow_7)">
    <circle cx="40" cy="40" r="30" fill="url(#faceGrad_7)" stroke="#B71C1C" stroke-width="2"/>
    
        <path d="M22,36 C22,36 19,30 15,30 C11,30 9,33 9,37 C9,42 22,47 22,47 C22,47 35,42 35,37 C35,33 33,30 29,30 C25,30 22,36 22,36 Z" fill="#FF1744"/>
        <path d="M58,36 C58,36 55,30 51,30 C47,30 45,33 45,37 C45,42 58,47 58,47 C58,47 71,42 71,37 C71,33 69,30 65,30 C61,30 58,36 58,36 Z" fill="#FF1744"/>
        <path d="M30,52 Q40,64 50,52" stroke="#B71C1C" stroke-width="4" stroke-linecap="round" fill="none"/>
      
    
  </g>
</svg>