<svg xmlns="http://www.w3.org/2000/svg" viewBox="0 0 80 80" width="100%" height="100%">
  <defs>
    <linearGradient id="faceGrad_8" x1="0%" y1="0%" x2="100%" y2="100%">
      <stop offset="0%" stop-color="#FFF59D" />
      <stop offset="100%" stop-color="#FBC02D" />
    </linearGradient>
    <filter id="shadow_8" x="-10%" y="-10%" width="120%" height="120%">
      <feDropShadow dx="0" dy="3" stdDeviation="2" flood-opacity="0.1"/>
    </filter>
  </defs>
  <g filter="url(#shadow_8)">
    <circle cx="40" cy="40" r="30" fill="url(#faceGrad_8)" stroke="#E65100" stroke-width="2"/>
    
        <circle cx="28" cy="42" r="3" fill="#5D4037"/>
        <circle cx="52" cy="42" r="3" fill="#5D4037"/>
        <path d="M36,52 Q40,48 44,52" stroke="#5D4037" stroke-width="2.5" stroke-linecap="round" fill="none"/>
      
    
        <path d="M40,22 C37,22 34,24 34,28 C34,29 35,30 36,30 C37,30 38,29 38,28 C38,26 39,25 40,25 C41,25 42,26 42,27 C42,29 40,30 39,32 C38,34 38,36 38,38 L38,39 C38,40 39,41 40,41 C41,41 42,40 42,39 C42,37 43,36 44,34 C46,32 48,30 48,27 C48,24 45,22 40,22 Z M40,45 C39,45 38,46 38,47 C38,48 39,49 40,49 C41,49 42,48 42,47 C42,46 41,45 40,45 Z" fill="#00E676" transform="scale(1.3) translate(-10, -10)"/>
      
  </g>
</svg>